# xmcd
#
# Track frame offsets: 
#        150
#        21533
#        41381
#        63164
#        84736
#        103681
#        121781
#        144420
#        164648
#        186543
#        206441
#        238295
#
# Disc length: 3381 seconds
#
# Revision: 0
# Processed by: cddbd v1.5.2PL0 Copyright (c) Steve Scherf et al.
# Submitted via: ExactAudioCopy v0.99pb4
#
DISCID=ac0d330c
DTITLE=Stevie Cochran - Confused And Misunderstood
DYEAR=2007
DGENRE=Rock
TTITLE0=I Am The Song
TTITLE1=Blind Man
TTITLE2=No One But You
TTITLE3=Love Becomes A Memory
TTITLE4=I'll Be There
TTITLE5=Use It Up
TTITLE6=Give Me A Chance
TTITLE7=Slip Away
TTITLE8=Where Do I Belong
TTITLE9=Love Someone
TTITLE10=Confused And Misunderstood
TTITLE11=You're Loosing Me
EXTD=
EXTT0=
EXTT1=
EXTT2=
EXTT3=
EXTT4=
EXTT5=
EXTT6=
EXTT7=
EXTT8=
EXTT9=
EXTT10=
EXTT11=
PLAYORDER=
